<svg width="48" height="48" viewBox="0 0 48 48" fill="none" xmlns="http://www.w3.org/2000/svg">
<g filter="url(#filter0_d_696707_97)">
<path d="M44 19.9999C44 25.5228 41.7614 30.5228 38.1421 34.1421C34.5228 37.7614 29.5228 39.9999 24 39.9999C18.4772 39.9999 13.4772 37.7614 9.85786 34.1421C6.23858 30.5228 4 25.5228 4 19.9999C4 14.4771 6.23858 9.47709 9.85786 5.8578C13.4772 2.23852 18.4772 -6.10352e-05 24 -6.10352e-05C29.5228 -6.10352e-05 34.5228 2.23852 38.1421 5.8578C41.7614 9.47709 44 14.4771 44 19.9999Z" fill="#4D5AE5"/>
<g clip-path="url(#clip0_696707_97)">
<path d="M31.9961 28V27.9993H32.0001V22.1313C32.0001 19.2606 31.3821 17.0493 28.0261 17.0493C26.4128 17.0493 25.3301 17.9346 24.8881 18.774H24.8414V17.3173H21.6594V27.9993H24.9728V22.71C24.9728 21.3173 25.2368 19.9706 26.9614 19.9706C28.6608 19.9706 28.6861 21.56 28.6861 22.7993V28H31.9961Z" fill="#F4F4FD"/>
<path d="M16.264 17.3179H19.5814V27.9999H16.264V17.3179Z" fill="#F4F4FD"/>
<path d="M17.9214 11.9999C16.8607 11.9999 16.0001 12.8606 16.0001 13.9213C16.0001 14.9819 16.8607 15.8606 17.9214 15.8606C18.9821 15.8606 19.8427 14.9819 19.8427 13.9213C19.8421 12.8606 18.9814 11.9999 17.9214 11.9999V11.9999Z" fill="#F4F4FD"/>
</g>
</g>
<defs>
<filter id="filter0_d_696707_97" x="0" y="-6.10352e-05" width="48" height="48.0001" filterUnits="userSpaceOnUse" color-interpolation-filters="sRGB">
<feFlood flood-opacity="0" result="BackgroundImageFix"/>
<feColorMatrix in="SourceAlpha" type="matrix" values="0 0 0 0 0 0 0 0 0 0 0 0 0 0 0 0 0 0 127 0" result="hardAlpha"/>
<feOffset dy="4"/>
<feGaussianBlur stdDeviation="2"/>
<feComposite in2="hardAlpha" operator="out"/>
<feColorMatrix type="matrix" values="0 0 0 0 0 0 0 0 0 0 0 0 0 0 0 0 0 0 0.25 0"/>
<feBlend mode="normal" in2="BackgroundImageFix" result="effect1_dropShadow_696707_97"/>
<feBlend mode="normal" in="SourceGraphic" in2="effect1_dropShadow_696707_97" result="shape"/>
</filter>
<clipPath id="clip0_696707_97">
<rect width="16" height="16" fill="white" transform="translate(16.0001 11.9999)"/>
</clipPath>
</defs>
</svg>
